<svg width="32" height="32" fill="none" xmlns="http://www.w3.org/2000/svg"><path d="M16 12.005a4 4 0 1 1 0 8 4 4 0 0 1 0-8Zm0-2a6 6 0 1 0 0 12 6 6 0 0 0 0-12ZM5.394 6.813 6.81 5.399l3.505 3.506L8.9 10.319 5.394 6.813ZM2 15.005h5v2H2v-2Zm3.394 10.193L8.9 21.692l1.414 1.414-3.505 3.506-1.415-1.414ZM15 25.005h2v5h-2v-5Zm6.687-1.9 1.414-1.414 3.506 3.506-1.414 1.414-3.506-3.506Zm3.313-8.1h5v2h-5v-2Zm-3.313-6.101 3.506-3.506 1.414 1.414-3.506 3.506-1.414-1.414ZM15 2.004h2v5h-2v-5Z" fill="#BC002D"/></svg>