<?xml version="1.0" encoding="utf-8"?><svg viewBox="0 0 153 50" xmlns="http://www.w3.org/2000/svg" xmlns:xlink="http://www.w3.org/1999/xlink"><style>:root>svg{display:none}:root>svg:target{display:block}</style><svg viewBox="0 0 32 32" id="benefits--camera-icon" xmlns="http://www.w3.org/2000/svg"><path d="M21 17a5 5 0 1 1-10 0 5 5 0 0 1 10 0Z"/><path d="M29 26H3V9h7.428l1.858-3h7.428l1.858 3H29v17Z"/></svg><svg viewBox="0 0 32 32" id="benefits--clock-icon" xmlns="http://www.w3.org/2000/svg"><path d="M16 16h-.933a.931.931 0 0 0 .272.66L16 16Zm0 12.133A12.133 12.133 0 0 1 3.867 16H2a14 14 0 0 0 14 14v-1.867ZM28.133 16A12.132 12.132 0 0 1 16 28.133V30a14 14 0 0 0 14-14h-1.867ZM16 3.867A12.133 12.133 0 0 1 28.133 16H30A14 14 0 0 0 16 2v1.867ZM16 2A14 14 0 0 0 2 16h1.867A12.133 12.133 0 0 1 16 3.867V2Zm-.933 5.6V16h1.866V7.6h-1.866Zm.272 9.06 5.6 5.6 1.322-1.32-5.6-5.6-1.322 1.32Z"/></svg><svg viewBox="0 0 32 32" id="benefits--coins-icon" xmlns="http://www.w3.org/2000/svg"><path fill-rule="evenodd" clip-rule="evenodd" d="M21.871 27.29c4.498 0 8.129-1.806 8.129-4.516V5.613C30 3.806 26.387 2 21.871 2s-8.13 1.806-8.13 3.613v6.322a11.847 11.847 0 0 1 5.204 4.246c.885.173 1.86.269 2.926.269 2.366 0 4.335-.472 5.745-1.24.2-.11.394-.229.583-.357v2.493c0 .424-.338 1.084-1.449 1.69-1.076.588-2.727 1.02-4.877 1.02-.43 0-.84-.017-1.229-.05.145.594.241 1.203.29 1.825.304.017.617.026.939.026 2.366 0 4.335-.472 5.744-1.24.2-.11.395-.229.584-.357v2.492c0 .427-.27 1.06-1.43 1.684-1.14.614-2.853 1.026-4.895 1.026-.415 0-.817-.017-1.206-.05-.14.6-.326 1.188-.559 1.76.569.063 1.157.095 1.764.095l-.004.023Zm4.877-13.656c1.111-.607 1.45-1.267 1.45-1.691V9.45a6.935 6.935 0 0 1-.584.357c-1.406.768-3.378 1.24-5.745 1.24-2.366 0-4.335-.472-5.744-1.24-.2-.11-.395-.229-.584-.357v2.493c0 .424.338 1.084 1.449 1.689 1.077.587 2.728 1.019 4.877 1.019 2.15 0 3.794-.432 4.878-1.02l.003.002Zm-11.2-7.118c0-.52.226-1.02.647-1.326a4.59 4.59 0 0 1 .676-.423c.493-.227 2.962-.962 5.004-.962 2.04 0 3.811.41 5.003.962.224.103.472.264.69.423.418.302.633.799.633 1.313v.011c0 .425-.338 1.084-1.449 1.691-1.077.587-2.728 1.019-4.877 1.019-2.15 0-3.794-.434-4.878-1.019-1.11-.605-1.449-1.266-1.449-1.689Z"/><path fill-rule="evenodd" clip-rule="evenodd" d="M18.258 21.87A8.118 8.118 0 0 1 10.13 30 8.118 8.118 0 0 1 2 21.87a8.118 8.118 0 0 1 8.129-8.128 8.118 8.118 0 0 1 8.13 8.129Zm-1.806 0a6.33 6.33 0 0 1-6.323 6.323 6.33 6.33 0 0 1-6.323-6.322 6.33 6.33 0 0 1 6.323-6.323 6.33 6.33 0 0 1 6.323 6.323Z"/></svg><svg viewBox="0 0 32 32" id="benefits--suitcase-icon" xmlns="http://www.w3.org/2000/svg"><path d="M10.615 2h10.77v6.072L30 8.087V30H2V8.072h8.615V2Zm2.154 6.072h6.462V4.435h-6.462v3.637Zm-8.615 2.45V27.55h23.692V10.52H4.154Zm8.615 3.652v9.739h-2.154v-9.74h2.154Zm8.616 0v9.739H19.23v-9.74h2.154Z"/></svg><svg viewBox="0 0 153 50" id="header--white-red-logo" xmlns="http://www.w3.org/2000/svg"><path d="M26.157 24.2h4.608v11.052L40.737 24.2h5.868L36.453 35.252 47.325 49.4h-5.868l-8.028-10.836-2.664 2.88V49.4h-4.608V24.2Zm24.263 0h5.076l6.408 10.62 6.408-10.62h5.076l-9.18 15.048V49.4H59.6V39.248L50.42 24.2Zm38.5 25.488c-7.597 0-13.033-5.94-13.033-12.816s5.436-12.816 13.032-12.816 13.032 5.94 13.032 12.816-5.436 12.816-13.032 12.816Zm-8.425-12.816c0 4.68 3.204 8.316 8.424 8.316 5.22 0 8.424-3.636 8.424-8.316 0-4.68-3.204-8.316-8.424-8.316-5.22 0-8.424 3.636-8.424 8.316ZM105.302 24.2h18v4.32h-6.696V49.4h-4.608V28.52h-6.696V24.2Zm34.383 25.488c-7.596 0-13.032-5.94-13.032-12.816s5.436-12.816 13.032-12.816 13.032 5.94 13.032 12.816-5.436 12.816-13.032 12.816Zm-8.424-12.816c0 4.68 3.204 8.316 8.424 8.316 5.22 0 8.424-3.636 8.424-8.316 0-4.68-3.204-8.316-8.424-8.316-5.22 0-8.424 3.636-8.424 8.316ZM33.585 0h1.24v13.6c-.74.6-2.32 1.1-3.64 1.1-2.72 0-4.92-2.06-4.92-4.9 0-2.86 2.2-4.9 4.92-4.9.78 0 1.6.16 2.4.54V0Zm-6 9.8c0 2.16 1.56 3.74 3.6 3.74.88 0 1.78-.14 2.4-.5V6.78c-.68-.52-1.54-.72-2.4-.72-2.04 0-3.6 1.58-3.6 3.74Zm16.276-1.5c0-1.24-.72-2.2-2.56-2.2-1.4 0-2.66.56-3.3.98v-1.3c.64-.42 1.8-.88 3.3-.88 2.22 0 3.84.96 3.84 3.32v5.58c-.94.5-1.94.9-3.46.9-2.72 0-4.54-1.04-4.54-2.88 0-1.72 1.62-2.54 4.34-2.8.8-.08 1.58-.14 2.38-.18V8.3Zm-5.44 3.52c0 1.16 1.22 1.8 3.26 1.8.68 0 1.48-.12 2.18-.46V9.88c-.8.04-1.58.1-2.38.18-2.04.2-3.06.74-3.06 1.76Zm8.475-6.62h1.52l3.32 7.14 3.38-7.14h1.38l-6.82 14.4h-1.38l2.8-5.92-4.2-8.48ZM0 5.585 16.56.065V49.4H7.935V12.14L0 14.762V5.585Z"/></svg></svg>