<?xml version="1.0" encoding="utf-8"?><svg viewBox="0 0 153 50" xmlns="http://www.w3.org/2000/svg" xmlns:xlink="http://www.w3.org/1999/xlink"><style>:root>svg{display:none}:root>svg:target{display:block}</style><svg viewBox="0 0 153 50" id="header--white-red-logo" xmlns="http://www.w3.org/2000/svg"><path d="M26.157 24.2h4.608v11.052L40.737 24.2h5.868L36.453 35.252 47.325 49.4h-5.868l-8.028-10.836-2.664 2.88V49.4h-4.608V24.2Zm24.263 0h5.076l6.408 10.62 6.408-10.62h5.076l-9.18 15.048V49.4H59.6V39.248L50.42 24.2Zm38.5 25.488c-7.597 0-13.033-5.94-13.033-12.816s5.436-12.816 13.032-12.816 13.032 5.94 13.032 12.816-5.436 12.816-13.032 12.816Zm-8.425-12.816c0 4.68 3.204 8.316 8.424 8.316 5.22 0 8.424-3.636 8.424-8.316 0-4.68-3.204-8.316-8.424-8.316-5.22 0-8.424 3.636-8.424 8.316ZM105.302 24.2h18v4.32h-6.696V49.4h-4.608V28.52h-6.696V24.2Zm34.383 25.488c-7.596 0-13.032-5.94-13.032-12.816s5.436-12.816 13.032-12.816 13.032 5.94 13.032 12.816-5.436 12.816-13.032 12.816Zm-8.424-12.816c0 4.68 3.204 8.316 8.424 8.316 5.22 0 8.424-3.636 8.424-8.316 0-4.68-3.204-8.316-8.424-8.316-5.22 0-8.424 3.636-8.424 8.316ZM33.585 0h1.24v13.6c-.74.6-2.32 1.1-3.64 1.1-2.72 0-4.92-2.06-4.92-4.9 0-2.86 2.2-4.9 4.92-4.9.78 0 1.6.16 2.4.54V0Zm-6 9.8c0 2.16 1.56 3.74 3.6 3.74.88 0 1.78-.14 2.4-.5V6.78c-.68-.52-1.54-.72-2.4-.72-2.04 0-3.6 1.58-3.6 3.74Zm16.276-1.5c0-1.24-.72-2.2-2.56-2.2-1.4 0-2.66.56-3.3.98v-1.3c.64-.42 1.8-.88 3.3-.88 2.22 0 3.84.96 3.84 3.32v5.58c-.94.5-1.94.9-3.46.9-2.72 0-4.54-1.04-4.54-2.88 0-1.72 1.62-2.54 4.34-2.8.8-.08 1.58-.14 2.38-.18V8.3Zm-5.44 3.52c0 1.16 1.22 1.8 3.26 1.8.68 0 1.48-.12 2.18-.46V9.88c-.8.04-1.58.1-2.38.18-2.04.2-3.06.74-3.06 1.76Zm8.475-6.62h1.52l3.32 7.14 3.38-7.14h1.38l-6.82 14.4h-1.38l2.8-5.92-4.2-8.48ZM0 5.585 16.56.065V49.4H7.935V12.14L0 14.762V5.585Z"/></svg></svg>