<svg width="32" height="32" viewBox="0 0 32 32" fill="none" xmlns="http://www.w3.org/2000/svg">
<path d="M21 17C21 18.3261 20.4732 19.5979 19.5355 20.5355C18.5979 21.4732 17.3261 22 16 22C14.6739 22 13.4021 21.4732 12.4645 20.5355C11.5268 19.5979 11 18.3261 11 17C11 15.6739 11.5268 14.4021 12.4645 13.4645C13.4021 12.5268 14.6739 12 16 12C17.3261 12 18.5979 12.5268 19.5355 13.4645C20.4732 14.4021 21 15.6739 21 17Z" stroke="#BC002D" stroke-width="2" stroke-linecap="square"/>
<path d="M29 26H3V9H10.428L12.286 6H19.714L21.572 9H29V26Z" stroke="#BC002D" stroke-width="2" stroke-linecap="square"/>
</svg>
