<svg width="32" height="32" fill="none" xmlns="http://www.w3.org/2000/svg"><path fill-rule="evenodd" clip-rule="evenodd" d="M21.871 27.29c4.498 0 8.129-1.806 8.129-4.516V5.613C30 3.806 26.387 2 21.871 2s-8.13 1.806-8.13 3.613v6.322a11.847 11.847 0 0 1 5.204 4.246c.885.173 1.86.269 2.926.269 2.366 0 4.335-.472 5.745-1.24.2-.11.394-.229.583-.357v2.493c0 .424-.338 1.084-1.449 1.69-1.076.588-2.727 1.02-4.877 1.02-.43 0-.84-.017-1.229-.05.145.594.241 1.203.29 1.825.304.017.617.026.939.026 2.366 0 4.335-.472 5.744-1.24.2-.11.395-.229.584-.357v2.492c0 .427-.27 1.06-1.43 1.684-1.14.614-2.853 1.026-4.895 1.026-.415 0-.817-.017-1.206-.05-.14.6-.326 1.188-.559 1.76.569.063 1.157.095 1.764.095l-.004.023Zm4.877-13.656c1.111-.607 1.45-1.267 1.45-1.691V9.45a6.935 6.935 0 0 1-.584.357c-1.406.768-3.378 1.24-5.745 1.24-2.366 0-4.335-.472-5.744-1.24-.2-.11-.395-.229-.584-.357v2.493c0 .424.338 1.084 1.449 1.689 1.077.587 2.728 1.019 4.877 1.019 2.15 0 3.794-.432 4.878-1.02l.003.002Zm-11.2-7.118c0-.52.226-1.02.647-1.326a4.59 4.59 0 0 1 .676-.423c.493-.227 2.962-.962 5.004-.962 2.04 0 3.811.41 5.003.962.224.103.472.264.69.423.418.302.633.799.633 1.313v.011c0 .425-.338 1.084-1.449 1.691-1.077.587-2.728 1.019-4.877 1.019-2.15 0-3.794-.434-4.878-1.019-1.11-.605-1.449-1.266-1.449-1.689Z" fill="#BC002D"/><path fill-rule="evenodd" clip-rule="evenodd" d="M18.258 21.87A8.118 8.118 0 0 1 10.13 30 8.118 8.118 0 0 1 2 21.87a8.118 8.118 0 0 1 8.129-8.128 8.118 8.118 0 0 1 8.13 8.129Zm-1.806 0a6.33 6.33 0 0 1-6.323 6.323 6.33 6.33 0 0 1-6.323-6.322 6.33 6.33 0 0 1 6.323-6.323 6.33 6.33 0 0 1 6.323 6.323Z" fill="#BC002D"/></svg>